<svg width="237" height="240" viewBox="0 0 237 240" fill="none" xmlns="http://www.w3.org/2000/svg">
<path d="M139 174.5L190.5 218V174.5H197C213.569 174.5 227 161.069 227 144.5V40C227 23.4315 213.569 10 197 10H40C23.4315 10 10 23.4315 10 40V144.5C10 161.069 23.4315 174.5 40 174.5H139Z" stroke="#1D2136" stroke-width="20"/>
<path d="M87.756 57.3C97.612 57.3 105.74 60.468 112.14 66.804C118.604 73.14 121.836 81.172 121.836 90.9C121.836 100.628 118.604 108.66 112.14 114.996C105.74 121.332 97.612 124.5 87.756 124.5H64.044V57.3H87.756ZM87.468 114.228C94.188 114.228 99.692 112.052 103.98 107.7C108.332 103.284 110.508 97.684 110.508 90.9C110.508 87.508 109.932 84.372 108.78 81.492C107.692 78.612 106.124 76.148 104.076 74.1C102.092 72.052 99.66 70.452 96.78 69.3C93.9 68.148 90.796 67.572 87.468 67.572H75.084V114.228H87.468ZM145.772 114.036H174.86V124.5H134.732V57.3H173.804V67.668H145.772V85.14H171.308V95.316H145.772V114.036Z" fill="#1D2136"/>
</svg>
