<svg width="237" height="240" viewBox="0 0 237 240" fill="none" xmlns="http://www.w3.org/2000/svg">
<path d="M139 174.5L190.5 218V174.5H197C213.569 174.5 227 161.069 227 144.5V40C227 23.4315 213.569 10 197 10H40C23.4315 10 10 23.4315 10 40V144.5C10 161.069 23.4315 174.5 40 174.5H139Z" stroke="#1D2136" stroke-width="20"/>
<path d="M75.084 114.036H104.172V124.5H64.044V57.3H103.116V67.668H75.084V85.14H100.62V95.316H75.084V114.036ZM161.548 57.3H172.396V124.5H163.084L128.236 76.5V124.5H117.388V57.3H127.372L161.548 104.532V57.3Z" fill="#1D2136"/>
</svg>
